<?xml version="1.0" encoding="UTF-8"?>
<svg xmlns="http://www.w3.org/2000/svg" viewBox="0 0 1741 689" width="1741" height="689">
    <path
        d="M671.24 95.5C677.93 96.36 684.75 94.85 691.53 95.62C694.45 95.95 697.89 96.38 699.2 99.42C700.81 103.15 697.2 106.12 694.53 108.03C686.5 113.73 679.36 120.07 673.61 128.13C656.98 151.43 653.15 185.75 624.81 199.34C617.43 202.87 609.56 204.01 601.47 204.7C598.25 204.97 595.15 204.71 592.06 205.5C598.87 212.82 606.4 219.05 612.23 227.27C614.68 230.73 617.99 234.58 615.68 238.5C604.26 237.52 594.36 227.37 586.14 220.37C581.83 216.7 578.28 212.83 572.5 211.88C568.9 226.67 562.1 241.08 556.84 255.38C555.41 259.28 550.94 267.71 551.07 271.49C551.17 274.41 554.32 277.26 556.07 279.4C559.86 284.06 563.22 289.07 566.33 294.21C575.55 309.49 581.7 326.99 584.89 344.52C598.2 417.62 567.67 495.12 496.51 525.01C484.65 529.99 472.28 533.54 459.5 535.13C439.87 537.56 419.68 537.35 400.26 533.4C395.11 532.36 389.93 531.16 384.93 529.52C380.19 527.96 375.42 525.54 370.5 525.18C365.24 532.96 360.75 541.32 355.85 549.33C353.07 553.87 349.34 558.34 348 563.5C356.4 569.03 368.7 570.06 378.45 571.31C406.24 574.86 434.98 573.77 461.52 564.07C469.61 561.11 477.35 557.53 484.92 553.42C489.23 551.09 492.46 547.47 497.5 547.25C504.49 552.99 498.67 556.63 493.6 560.06C484.34 566.32 474.67 571.51 464.36 575.84C436.98 587.36 407.16 592.93 377.5 592.85C369.54 592.83 361.43 592.68 353.5 591.85C347.79 591.25 342.26 589.62 336.5 589.74C333.39 593.59 331.76 598.79 329.81 603.35C324.04 616.88 320.73 630.63 317.48 644.93C316.13 650.88 315.54 657.82 312.5 663.14C310.04 663.14 307.59 663.14 305.13 663.14C303.35 657.1 305.38 650.13 306.5 644.02C308.93 630.7 312.19 617.3 317.27 604.71C319.45 599.29 324.19 592.95 324.5 587.15C320.97 584.05 315.25 583.96 310.75 582.65C302.91 580.36 295.27 576.99 287.84 573.62C265.36 563.43 243.49 548.79 224.98 532.52C203.99 514.06 186.9 490.78 172.69 466.78C162.54 449.66 154.44 431.36 141.21 416.26C129.29 402.66 111.19 397.2 93.5 397.13C89.5 397.12 85.27 395.7 81.5 396.9C79.2 400.46 79.79 405.32 79.66 409.5C79.37 418.5 79.31 427.5 79.3 436.5C79.27 452.5 79.28 468.51 79.99 484.5C80.38 493.38 80.8 503.61 86.55 510.91C89.91 515.17 95.63 519.76 100.74 521.7C103.71 522.82 106.75 523.17 109.66 524.5C109.66 526.35 109.66 528.2 109.66 530.05C102.62 532.71 86.72 530.72 78.5 530.94C55.86 531.55 33.1 532.15 10.41 531.5C9.09 529.16 8.05 526.15 10.67 524.17C14.04 521.62 19.15 521.73 22.81 519.36C31.85 513.52 34.17 502.54 34.79 492.5C35.89 474.51 34.69 456.52 35 438.5C35.73 395.52 35.42 352.45 35.75 309.5C35.86 295.79 35.73 282.19 35.12 268.5C34.76 260.48 33.72 250.77 27.82 244.69C22.61 239.31 14.98 239.39 8.5 236.71C7.86 233.75 7.75 231.34 8.86 228.5C13.39 226.2 19.51 227.83 24.5 227.93C36.5 228.18 48.5 227.95 60.5 227.95C79.83 227.96 99.17 227.97 118.5 227.95C147.77 227.93 181.22 228.74 205.36 248.1C244.02 279.12 240.77 336.25 207.15 369.65C199.21 377.53 189.27 384.3 178.77 388.3C173.84 390.17 168.63 391.39 163.82 393.5C166.03 396.56 175.92 400.81 179.93 403.55C189.27 409.94 197.82 418.9 204.5 428.01C216.59 444.52 224.57 463.54 236.14 480.33C253.22 505.1 273.07 526.86 298.9 542.6C307.63 547.92 326.77 560.08 336.5 560.51C340.73 556.44 342.6 549.06 345.42 543.9C350.03 535.49 356.29 528 360.65 519.5C357.85 516.42 353.28 514.97 349.73 512.75C344.26 509.31 339.15 505.46 334.22 501.3C316.61 486.47 302.02 466.55 293.25 445.28C259.53 363.58 292.33 267.22 376.21 233.65C389.28 228.43 403.42 224.16 417.5 223.16C449.97 220.86 481.56 225.66 510.47 240.97C517.07 244.46 523.51 248.46 529.4 253.06C534.28 256.88 538.69 262.03 544.5 264.34C547.68 259.89 548.81 253.43 550.64 248.2C554.3 237.75 562.81 221.07 562.78 210.5C551.87 208.63 540.5 209.8 529.47 208.09C525.6 207.49 520.53 208.13 517.5 205.4C517.89 200.99 522.55 199.34 526.4 197.87C536.78 193.92 547.98 198.42 558.39 196.5C555.77 190.98 549.09 187.18 545 182.49C537.95 174.42 532.55 163.79 530.32 153.29C527.03 137.8 529.19 121.51 534.17 106.61C537.29 97.24 541.87 88.2 543.83 78.48C545 72.66 545.49 66.67 544.56 60.78C543.48 53.92 540.79 47.51 540.84 40.5C550.82 37.26 560.85 47.66 568.5 52.87C569.66 50.32 569.72 47.65 570.44 44.89C572.4 37.26 577.61 30.7 584.69 27.2C593.74 22.72 610.03 27.8 619.64 29.71C624.85 30.74 630.16 31.11 635.34 32.27C650.99 35.79 664.33 46.24 673.11 59.36C676.62 64.6 680.3 69.91 680.13 76.5C679.93 84.34 674.13 88.92 671.24 95.5ZM670.17 66.5C659.49 44.15 635.12 37.44 612.52 34.73C605.39 33.87 596.49 31.79 589.46 33.5C591.37 41.87 595.64 47 601.76 52.73C603.1 53.98 604.38 55.63 606.08 56.41C610.36 58.39 615.78 58.79 620.31 60.24C627.13 62.43 635.74 64.8 642.88 64.5C641.46 56.66 631.2 51.89 624.04 50.5C618.82 49.49 613.44 51.32 613.24 44.5C616.14 42.59 620.21 44.19 623.51 44.89C631.73 46.62 652.55 55.33 648.41 66.9C646.6 71.97 640.87 71.91 636.63 70.73C632.82 69.68 628.96 68.62 625.22 67.32C620.12 65.54 614.51 61.75 609.15 61.5C611.11 64.98 614.19 67.72 617.17 70.36C629.12 80.99 642.36 81.22 656.9 75.44C662.03 73.4 667.32 71.46 670.17 66.5ZM583.5 34.8C577 39.13 571.97 51.88 576.44 59.09C578.32 62.12 583.25 64.37 586.14 66.38C595.62 72.96 608.97 84.32 621.23 81.5C619.14 77.87 615.41 75.07 612.39 72.1C606 65.83 599.31 59.83 593.49 53.01C591.02 50.13 588.58 46.96 587.07 43.46C585.77 40.43 585.53 37.28 583.5 34.8ZM548.5 46.82C547.58 51.35 549.5 55.85 550.13 60.5C551.04 67.15 550.9 73.77 549.69 80.37C547.45 92.6 541.19 103.56 538.17 115.56C531.79 140.94 537.03 168.64 558.5 185.21C560.01 180.7 559.28 176.18 560.16 171.55C562.46 159.42 568.56 148.29 576.12 138.66C581.39 131.94 588.2 126.62 594.92 121.43C597.38 119.53 601.86 117.61 602.5 114.23C603.52 108.94 596.07 98.61 593.06 94.4C585.21 83.38 573.66 67.63 564.14 58.37C559.56 53.9 554.63 48.95 548.5 46.82ZM581.5 70.43C583.33 77.14 591.04 82.86 595.42 88.11C601.85 95.81 606.34 103.57 609.5 113.04C615.73 111.99 621.61 108.28 627.63 106.23C637.22 102.96 657.69 99.55 664.75 94.27C670.58 89.92 675.71 80.65 673.5 73.63C665.37 78.67 657.14 83.47 647.48 84.85C640.84 85.79 634.09 84.1 627.5 84.86C624.82 85.17 622.93 87.2 620.34 87.72C616 88.58 610.8 87.21 606.73 85.71C598.38 82.66 589.52 71.09 581.5 70.43ZM690.3 102.5C686.95 100.79 683.24 101.64 679.5 101.95C671.51 102.61 663.31 103.14 655.5 105.06C624.13 112.78 589.06 125.16 572.78 155.3C568.49 163.25 566.22 171.45 565.92 180.5C565.82 183.34 565.26 187.25 566.64 189.85C568.44 193.23 574.68 194.6 578.04 195.49C590.6 198.8 604.95 199.66 617.21 194.69C648.26 182.12 652.17 149.25 668.15 123.67C671.59 118.16 675.92 113.49 681.08 109.55C684.22 107.16 688.15 105.76 690.3 102.5ZM802.44 308.5C796.6 308.28 796.28 302.27 795.02 297.49C791.94 285.79 787.26 275.3 779.9 265.64C770.17 252.89 757.1 242.32 741.47 237.95C711.04 229.45 673.11 243.6 666.53 277.06C659.71 311.8 688.25 332.22 715.35 346.17C752.83 365.47 801.82 380.01 818.08 423.48C821.82 433.48 821.98 443.58 822.49 454.1C823.06 465.83 819.62 477.47 814.4 487.89C796.7 523.22 762.93 535.32 725.5 536.97C707.52 537.76 689 536.43 671.54 531.81C659.41 528.61 647.67 524.73 636.45 519.06C632.75 517.19 626.99 515.47 624.35 512.17C621.08 508.08 622.74 499.15 622.49 494.15C621.83 481.27 621.92 468.39 621.97 455.5C621.99 450.75 620.91 445.73 621.5 441.11C623.93 439.54 625.63 439.35 628.5 439.89C631.34 444.05 631.63 449.65 633.02 454.47C634.46 459.48 636.28 464.41 638.4 469.17C644.99 483.95 656.72 497.08 669.04 507.48C696.23 530.41 748.65 530.24 771.3 500.78C776.11 494.51 779.06 485.88 780.58 478.22C781.67 472.71 782.08 467.11 781.69 461.5C779.71 433.4 755.47 418.26 733.22 406.3C692.01 384.15 636.14 368.96 628.57 314.76C627.45 306.77 627.27 298.31 628.64 290.34C630.56 279.14 635.01 268.41 641.61 259.14C672.6 215.61 738.09 216.63 783.43 233.11C787.98 234.76 801.72 239.55 804.41 243.08C807.27 246.83 805.04 254.17 805 258.5C804.86 270.84 805.21 283.18 804.61 295.5C804.39 299.81 805.45 305.01 802.44 308.5ZM985.06 224.5C988.92 229.6 990.13 238.01 992.48 244.05C997.98 258.16 1003.54 272.25 1009.25 286.27C1029.41 335.77 1048.17 385.91 1067.83 435.62C1074.9 453.52 1081.4 471.57 1089.45 489.07C1093.32 497.49 1097.7 507.52 1104.45 514.04C1110.47 519.86 1117.98 520.47 1124.72 524.5C1124.72 526.62 1124.72 528.73 1124.72 530.85C1092.37 530.85 1060.03 530.85 1027.69 530.85C1027.69 528.73 1027.69 526.62 1027.69 524.5C1036.58 519.43 1045.07 520.6 1046.44 507.7C1047.12 501.29 1044.49 495.12 1042.25 489.28C1038.3 478.97 1033.86 468.81 1030.15 458.42C1015.53 417.57 999.61 376.99 983.88 336.53C978.94 323.82 974.13 311.06 969.2 298.35C967.39 293.66 966.24 286.37 962.5 283.09C958.8 286.49 957.25 294.06 955.41 298.88C950.42 312 945.97 325.31 940.86 338.39C926.61 374.79 912.88 411.44 899.66 448.24C897.26 454.91 895.3 461.77 892.83 468.4C888.88 479 884.1 489.99 883.75 501.5C883.52 509.2 887.13 515.74 893.55 519.99C899.08 523.66 906.56 522.73 905.44 530.9C880.07 530.9 854.7 530.9 829.33 530.9C829 528.86 828.28 526.79 829.34 524.8C830.69 522.26 835.92 521.7 838.36 520.81C843.76 518.84 848.25 515.88 852.02 511.53C856.41 506.46 858.66 499.91 861.42 493.9C866.04 483.81 870.66 473.7 875.03 463.5C894.47 418.1 910.44 371.12 928.72 325.27C930.48 320.85 931.52 316.18 933.34 311.77C941.54 291.88 949.97 271.98 957.3 251.74C960.41 243.16 965.04 234.2 966.5 225.27C972.76 224.54 978.75 223.42 985.06 224.5ZM1239.78 228.5C1242.68 237.1 1230.79 237.42 1224.89 242.41C1218.6 247.74 1215.87 256.51 1215.03 264.5C1213.33 280.79 1214.74 297.18 1214.59 313.5C1214.19 355.76 1215.14 398.17 1214.74 440.5C1214.59 456.49 1214.17 472.51 1214.3 488.5C1214.35 495.65 1213.41 504.97 1217.08 511.4C1223.31 522.31 1245.79 519.05 1256.5 519.06C1269.83 519.08 1283.28 518.91 1296.28 515.72C1322.36 509.31 1336.31 486.25 1343.5 462.2C1345.83 462.2 1348.17 462.2 1350.5 462.2C1352.09 469.74 1349.49 478.11 1348.4 485.69C1347.17 494.23 1346.18 502.95 1345.38 511.55C1344.8 517.82 1344.82 524.53 1342.71 530.5C1336.89 531.63 1330.45 531.06 1324.5 531.12C1309.49 531.29 1294.5 530.77 1279.5 530.75C1250.5 530.7 1221.5 531.34 1192.5 530.71C1180.84 530.46 1169.16 530.72 1157.5 530.81C1153.43 530.84 1146.84 532 1143.5 529.51C1143.48 528.27 1143.14 527.41 1143.73 526.24C1144.95 523.83 1157.52 519.8 1161.1 516.57C1167.95 510.37 1169.02 501.23 1169.91 492.5C1171.56 476.34 1169.36 459.73 1169.88 443.5C1171.4 395.55 1169.54 347.45 1169.97 299.5C1170.11 284.82 1173.01 262.16 1165.37 249.14C1162.55 244.33 1157.3 240.51 1152.35 238.12C1149.96 236.95 1146.44 236.83 1144.42 235.07C1142.42 233.34 1143.09 230.59 1143.82 228.5C1147.89 226.33 1163.9 227.96 1169.5 228.03C1184.51 228.23 1199.49 228.28 1214.5 228.13C1222.63 228.04 1231.85 226.75 1239.78 228.5ZM1380.27 228.25C1388.64 227.62 1397.1 228.09 1405.5 228.13C1420.17 228.2 1434.83 228.08 1449.5 228.07C1457.18 228.06 1471.93 226.08 1478.43 229.5C1478.43 231.17 1478.43 232.83 1478.43 234.5C1471.29 238.03 1463.69 239.26 1458 245.5C1445.14 259.57 1450.39 290.76 1449.87 308.5C1448.79 344.96 1449.73 381.8 1449.6 418.5C1449.55 434.5 1449.66 450.5 1449.87 466.5C1450.01 476.76 1449.69 487.3 1451.15 497.48C1452.27 505.31 1456.53 513.84 1463.11 518.39C1465.68 520.17 1477.08 523.9 1477.77 525.66C1478.39 527.26 1477.76 529.29 1477.59 530.89C1445.2 530.89 1412.82 530.89 1380.44 530.89C1379.77 527.93 1379.69 526.43 1380.43 523.5C1385.46 521.98 1390.62 520.71 1394.8 517.33C1410.09 504.94 1406.35 477.02 1406.27 459.5C1406.14 429.47 1407.02 399.49 1406.82 369.5C1406.68 346.95 1406.13 324.25 1406.48 301.61C1406.75 283.87 1410.09 255.21 1395.39 242.09C1390.9 238.08 1385.63 237 1380.27 234.82C1380.27 232.63 1380.27 230.44 1380.27 228.25ZM1712.7 228.5C1715.26 234.62 1715.26 241.93 1716.24 248.46C1717.93 259.77 1719.33 271.08 1719.93 282.5C1720.14 286.51 1720.86 290.57 1720.5 294.56C1718.6 294.73 1715.87 295.44 1714.15 294.3C1712.58 293.27 1712.23 290.25 1711.77 288.61C1710.43 283.84 1709.1 279.08 1706.88 274.62C1700.41 261.63 1689.43 251.84 1675.93 246.57C1658.42 239.73 1624.58 239.45 1605.56 240.42C1599.55 240.72 1586.76 239.45 1582.48 243.98C1577.58 249.17 1578.96 265.57 1578.97 272.5C1579 289.84 1580.06 307.15 1579.66 324.5C1579.44 334.52 1577.78 352.31 1580.66 361.5C1589.74 363.94 1600.05 362.31 1609.5 362.3C1626.75 362.28 1651.27 364.22 1661.74 347.27C1665.42 341.32 1666.25 334.53 1667.5 327.81C1669.83 327.81 1672.17 327.81 1674.5 327.81C1675.7 335.83 1675.28 344.38 1675.28 352.5C1675.27 364.5 1675.27 376.5 1675.27 388.5C1675.27 395.78 1676.71 410.44 1674.5 416.57C1672.17 416.57 1669.83 416.57 1667.5 416.57C1665.67 407.17 1664.72 396.98 1658 389.5C1644.95 374.97 1620.2 376.47 1602.5 376.27C1595.24 376.19 1587.31 375.93 1580.23 377.5C1578.18 386.35 1579.62 396.44 1579.48 405.5C1579.13 429.17 1579.35 452.83 1579.65 476.5C1579.77 486.54 1577.68 504.61 1584.86 512.65C1593.67 522.51 1615.47 519.47 1627.5 519.31C1660.72 518.87 1691.32 518.51 1712.84 489.31C1717.37 483.17 1720.73 475.99 1723.4 468.87C1724.66 465.52 1725.5 461.78 1727.3 458.81C1729.03 458.81 1730.77 458.81 1732.5 458.81C1733.54 466.62 1730.61 475.07 1729.48 482.88C1728.07 492.54 1725.85 502 1724.33 511.6C1723.31 518.04 1723.32 524.53 1721.5 530.82C1715.91 532.68 1708.43 531.47 1702.5 531.39C1689.5 531.21 1676.48 531.27 1663.5 530.72C1630.29 529.31 1596.74 530.64 1563.5 530.64C1551.17 530.64 1538.83 530.64 1526.5 530.64C1521.27 530.64 1514.51 531.91 1509.81 529.5C1509.07 527.08 1509.26 525.81 1510.28 523.5C1514.75 522.31 1520.9 521.14 1524.54 518.04C1539.42 505.34 1534.87 476.84 1535.13 459.5C1535.91 405.88 1535.11 352.15 1535.04 298.5C1535.02 282.91 1538.87 256.79 1526.92 244.58C1522.34 239.91 1516.22 237.81 1510.28 235.5C1510.28 233.39 1510.28 231.27 1510.28 229.16C1514.95 227.88 1518.78 228.79 1523.5 228.93C1532.07 229.19 1540.95 229.24 1549.5 228.96C1582.81 227.87 1616.1 228.94 1649.5 228.67C1664.51 228.55 1679.47 227.75 1694.5 227.99C1700.29 228.08 1707.18 226.88 1712.7 228.5ZM498.5 347.63C505.34 341.34 513.53 324.67 518.67 316.18C520.64 312.94 525.02 308.38 525.15 304.5C525.29 300.16 520.25 291.35 518.18 287.34C508.61 268.86 492.93 253.46 474.11 244.45C444.59 230.3 407.78 233.45 381.18 252.65C340.25 282.19 327.42 340.61 330.21 388.5C330.96 401.36 333.13 414.11 335.61 426.73C340.38 451.08 349.39 475.52 366.84 493.68C369.07 496 370.83 498.59 373.4 500.5C376.62 498.44 377.98 494.68 380.07 491.63C383.57 486.53 387.39 481.59 391.15 476.68C405.07 458.48 432.33 435.11 426.74 409.61C424.16 397.84 406.96 381.67 400.2 370.3C387.07 348.23 388.35 321.59 393.63 297.28C395.12 290.43 396.52 277.86 400.41 272.5C406.72 273.76 417.56 286.37 422.36 291.14C446.21 314.86 463.06 343.38 453.62 378.24C450.95 388.1 447 397.63 442.07 406.59C438.81 412.5 433.44 418.42 434.5 425.37C442 419.71 448 411.74 454.15 404.69C462.25 395.39 470.72 386.57 478.11 376.66C481.9 371.57 489.03 363.31 490.73 357.3C493.1 348.88 490.21 336.22 491.5 327.08C492.96 326.94 494.87 326.33 496.25 327.21C499.19 329.09 497.91 343.92 498.5 347.63ZM80.5 384.76C88.12 386.64 96.66 385.71 104.5 385.73C126.15 385.78 148.77 384.75 165.62 369.12C193.99 342.8 196.41 276.98 161.87 254.61C145.11 243.75 126.95 241.7 107.5 240.88C99.92 240.56 88.92 239.28 83.82 246.29C81.27 249.81 81.36 254.35 81.12 258.5C80.63 266.84 80.69 275.15 80.62 283.5C80.45 306.83 79.93 330.16 80.06 353.5C80.1 360.5 80.31 367.5 80.37 374.5C80.4 377.97 79.9 381.36 80.5 384.76ZM403.5 284.26C402.27 288.54 401.84 293.1 400.94 297.5C397.07 316.38 394.22 336.88 401.13 355.42C405.07 365.97 412.26 374.7 418.96 383.56C422.29 387.97 425.38 393.24 429.5 396.88C431.4 390.3 429.77 381.8 428.48 375.06C425.6 359.93 420.4 345.36 415.71 330.72C413.83 324.85 408.87 315.01 409.5 309.23C415.6 311.82 420.61 326.35 422.94 332.51C428.56 347.36 433.72 362.71 435.93 378.5C436.94 385.72 436.58 393.05 437.5 400.22C441.78 394.72 443.34 387.27 445.26 380.68C454.83 347.68 443.67 322.9 420.53 299.98C415.52 295.02 409.84 287.23 403.5 284.26ZM529.5 316.01C525.6 318.31 523.45 325.5 521.13 329.64C515.08 340.42 508.31 350.63 501.34 360.81C487.41 381.15 471.95 400.6 455.31 418.79C445.14 429.9 430.14 442.62 422.79 455.5C426.36 455.34 429.38 453.67 432.62 452.16C437.6 449.83 442.66 447.81 447.23 444.7C453.33 440.54 458.55 435.1 465.12 431.62C476.54 425.57 489.5 426.56 501.53 429.96C507.32 431.6 515 432.95 519.14 437.5C510.97 450.87 489.03 462.02 473.53 459.86C466.49 458.88 454.83 453.44 448.58 454.3C443.43 455.01 438.04 457.65 433.38 459.87C415.97 468.17 406.57 476.2 394.76 491.27C390.9 496.19 386.04 500.67 383.64 506.5C388.4 514.19 400.02 517.76 408.26 520.3C430.15 527.03 456.7 525.74 477.07 514.55C482.33 511.66 487.08 507.01 491.82 503.33C532.17 471.99 542.41 409.35 538.2 361.5C537.19 350.06 535.95 338.57 533.26 327.38C532.34 323.58 531.73 319.21 529.5 316.01ZM507.92 438.5C494.92 434.62 470.43 429.29 460.79 442.5C467.16 443.91 476.8 439.22 482.22 443.5C476.64 448.67 466.83 445.12 461.95 450.5C474.08 454.98 487.64 452.35 498.41 445.92C501.83 443.88 506.14 442.07 507.92 438.5Z"
        fill="white" fill-rule="evenodd" stroke="#383636" stroke-width="0.25"
        stroke-linejoin="round" />
</svg>